<svg width="1000" height="191" viewBox="0 0 1000 191" fill="none" xmlns="http://www.w3.org/2000/svg">
<path d="M165.164 47.6788L82.5821 0L0 47.6788L82.5821 95.3576L165.164 47.6788Z" fill="#5FBEFE"/>
<path d="M0 143.036L82.5821 190.715V95.3574L0 47.6786V143.036Z" fill="#4785FF"/>
<path d="M165.164 143.036V47.6786L82.582 95.3574V190.715L165.164 143.036Z" fill="#222FFC"/>
<path d="M238.894 144.709H274.138C295.024 144.709 306.641 133.613 306.641 116.775C306.641 102.155 297.373 95.2364 289.541 92.7562C293.849 90.4066 300.506 84.7937 300.506 74.612C300.506 61.5586 289.672 52.0296 274.66 52.0296H238.894V144.709ZM261.868 124.737V104.243H272.441C280.534 104.243 283.798 108.42 283.798 114.294C283.798 120.56 280.404 124.737 272.702 124.737H261.868ZM261.868 86.6211V72.0013H269.7C275.313 72.0013 278.315 74.4815 278.315 79.3112C278.315 83.6188 275.835 86.6211 270.222 86.6211H261.868Z" fill="#1D1C3A"/>
<path d="M315.506 144.709H371.375V123.693H338.48V52.0296H315.506V144.709Z" fill="#1D1C3A"/>
<path d="M380.264 144.709H418.249C442.528 144.709 462.5 125.39 462.5 98.3692C462.5 71.3486 442.528 52.0296 418.249 52.0296H380.264V144.709ZM403.238 123.04V73.6983H417.466C431.563 73.6983 438.482 84.0105 438.482 98.3692C438.482 112.728 431.563 123.04 417.466 123.04H403.238Z" fill="#1D1C3A"/>
<path d="M471.408 144.709H494.382V89.6234H495.035L530.54 144.709H553.514V52.0296H530.54V107.115H529.887L494.382 52.0296H471.408V144.709Z" fill="#1D1C3A"/>
<path d="M611.836 146.014C637.943 146.014 659.612 126.304 654.129 92.8868H612.75V111.814H631.808C628.806 121.735 620.974 124.998 612.619 124.998C598 124.998 587.296 114.817 587.296 98.3692C587.296 81.9219 598.652 72.5234 612.75 72.5234C622.41 72.5234 629.458 76.4395 634.288 83.6189L650.866 72.2624C641.337 55.6845 625.673 50.7242 612.358 50.7242C586.252 50.7242 563.669 69.2601 563.669 98.3692C563.669 127.478 585.86 146.014 611.836 146.014Z" fill="#1D1C3A"/>
<path d="M690.92 144.709H726.164C747.049 144.709 758.667 133.613 758.667 116.775C758.667 102.155 749.399 95.2364 741.567 92.7562C745.874 90.4066 752.532 84.7937 752.532 74.612C752.532 61.5586 741.697 52.0296 726.686 52.0296H690.92V144.709ZM713.894 124.737V104.243H724.467C732.56 104.243 735.823 108.42 735.823 114.294C735.823 120.56 732.429 124.737 724.728 124.737H713.894ZM713.894 86.6211V72.0013H721.726C727.339 72.0013 730.341 74.4815 730.341 79.3112C730.341 83.6188 727.861 86.6211 722.248 86.6211H713.894Z" fill="#1D1C3A"/>
<path d="M767.532 144.709H823.401V123.693H790.506V52.0296H767.532V144.709Z" fill="#1D1C3A"/>
<path d="M872.908 146.014C886.483 146.014 902.017 141.054 911.546 124.476L894.968 112.989C890.138 120.299 883.22 124.215 873.821 124.215C859.985 124.215 848.237 114.817 848.237 98.3692C848.237 82.183 859.724 72.5234 873.56 72.5234C882.698 72.5234 890.138 76.4395 894.968 83.6189L911.546 72.2624C902.017 55.6845 886.614 50.7242 873.038 50.7242C846.801 50.7242 824.61 69.2601 824.61 98.3692C824.61 127.478 846.67 146.014 872.908 146.014Z" fill="#1D1C3A"/>
<path d="M920.374 144.709H943.348V118.602L949.875 110.509L974.807 144.709H1000L963.32 93.931L997.128 52.0296H971.674L943.348 88.1875V52.0296H920.374V144.709Z" fill="#1D1C3A"/>
</svg>
