<svg width="1203" height="231" viewBox="0 0 1203 231" fill="none" xmlns="http://www.w3.org/2000/svg">
<path d="M198.692 58.1425L99.3462 0.784912L0 58.1425L99.3462 115.5L198.692 58.1425Z" fill="#5FBEFE"/>
<path d="M0 172.857L99.3462 230.215V115.5L0 58.1423V172.857Z" fill="#4785FF"/>
<path d="M198.692 172.857V58.1423L99.3461 115.5V230.215L198.692 172.857Z" fill="#222FFC"/>
<path d="M287.39 174.869H329.788C354.914 174.869 368.889 161.522 368.889 141.264C368.889 123.677 357.74 115.354 348.318 112.37C353.5 109.544 361.509 102.791 361.509 90.5429C361.509 74.8396 348.475 63.3762 330.416 63.3762H287.39V174.869ZM315.027 150.843V126.189H327.747C337.483 126.189 341.409 131.214 341.409 138.281C341.409 145.818 337.326 150.843 328.061 150.843H315.027ZM315.027 104.99V87.4022H324.449C331.202 87.4022 334.813 90.3858 334.813 96.196C334.813 101.378 331.83 104.99 325.077 104.99H315.027Z" fill="white"/>
<path d="M379.554 174.869H446.764V149.587H407.192V63.3762H379.554V174.869Z" fill="white"/>
<path d="M457.457 174.869H503.154C532.362 174.869 556.388 151.629 556.388 119.123C556.388 86.6171 532.362 63.3762 503.154 63.3762H457.457V174.869ZM485.095 148.802V89.4436H502.211C519.171 89.4436 527.494 101.849 527.494 119.123C527.494 136.396 519.171 148.802 502.211 148.802H485.095Z" fill="white"/>
<path d="M567.104 174.869H594.742V108.602H595.527L638.24 174.869H665.877V63.3762H638.24V129.644H637.454L594.742 63.3762H567.104V174.869Z" fill="white"/>
<path d="M736.039 176.44C767.445 176.44 793.513 152.728 786.918 112.527H737.138V135.297H760.065C756.453 147.232 747.031 151.157 736.981 151.157C719.394 151.157 706.517 138.909 706.517 119.123C706.517 99.3367 720.179 88.0303 737.138 88.0303C748.759 88.0303 757.238 92.7413 763.049 101.378L782.992 87.7163C771.528 67.7731 752.684 61.8059 736.667 61.8059C705.261 61.8059 678.094 84.1045 678.094 119.123C678.094 154.141 704.789 176.44 736.039 176.44Z" fill="white"/>
<path d="M831.176 174.869H873.575C898.7 174.869 912.676 161.522 912.676 141.264C912.676 123.677 901.527 115.354 892.105 112.37C897.287 109.544 905.296 102.791 905.296 90.5429C905.296 74.8396 892.262 63.3762 874.203 63.3762H831.176V174.869ZM858.814 150.843V126.189H871.534C881.27 126.189 885.195 131.214 885.195 138.281C885.195 145.818 881.113 150.843 871.848 150.843H858.814ZM858.814 104.99V87.4022H868.236C874.988 87.4022 878.6 90.3858 878.6 96.196C878.6 101.378 875.616 104.99 868.864 104.99H858.814Z" fill="white"/>
<path d="M923.341 174.869H990.551V149.587H950.979V63.3762H923.341V174.869Z" fill="white"/>
<path d="M1050.11 176.44C1066.44 176.44 1085.13 170.472 1096.59 150.529L1076.65 136.71C1070.84 145.504 1062.51 150.215 1051.21 150.215C1034.56 150.215 1020.43 138.909 1020.43 119.123C1020.43 99.6508 1034.25 88.0303 1050.89 88.0303C1061.89 88.0303 1070.84 92.7413 1076.65 101.378L1096.59 87.7163C1085.13 67.7731 1066.6 61.8059 1050.26 61.8059C1018.7 61.8059 992.006 84.1045 992.006 119.123C992.006 154.141 1018.54 176.44 1050.11 176.44Z" fill="white"/>
<path d="M1107.21 174.869H1134.85V143.463L1142.7 133.727L1172.69 174.869H1203L1158.87 113.784L1199.55 63.3762H1168.92L1134.85 106.874V63.3762H1107.21V174.869Z" fill="white"/>
</svg>
